ISO-10303-21;
HEADER;
FILE_DESCRIPTION (( 'STEP AP203' ),
    '1' );
FILE_NAME ('ISMB200 Construction Beam.STEP',
    '2026-08-05T07:36:41',
    ( '' ),
    ( '' ),
    'SwSTEP 2.0',
    'SolidWorks 2019',
    '' );
FILE_SCHEMA (( 'CONFIG_CONTROL_DESIGN' ));
ENDSEC;

DATA;
#1 = ORIENTED_EDGE ( 'NONE', *, *, #472, .F. ) ;
#2 = CARTESIAN_POINT ( 'NONE',  ( -50.00000000000000000, -90.00000000000000000, 3000.000000000000000 ) ) ;
#3 = VECTOR ( 'NONE', #167, 1000.000000000000000 ) ;
#4 = PRODUCT_DEFINITION_FORMATION_WITH_SPECIFIED_SOURCE ( 'ANY', '', #246, .NOT_KNOWN. ) ;
#5 = ORIENTED_EDGE ( 'NONE', *, *, #344, .F. ) ;
#6 = EDGE_LOOP ( 'NONE', ( #269, #17, #397, #54 ) ) ;
#7 = LINE ( 'NONE', #408, #256 ) ;
#8 = DIRECTION ( 'NONE',  ( 0.000000000000000000, -0.000000000000000000, -1.000000000000000000 ) ) ;
#9 = DIRECTION ( 'NONE',  ( 0.000000000000000000, -1.000000000000000000, 0.000000000000000000 ) ) ;
#10 = CARTESIAN_POINT ( 'NONE',  ( 16.70000000000007745, 90.00000000000000000, -3000.000000000000000 ) ) ;
#11 = DIRECTION ( 'NONE',  ( 1.000000000000000000, 0.000000000000000000, 0.000000000000000000 ) ) ;
#12 = AXIS2_PLACEMENT_3D ( 'NONE', #29, #31, #181 ) ;
#13 = LINE ( 'NONE', #110, #498 ) ;
#14 = APPROVAL_DATE_TIME ( #565, #283 ) ;
#15 = CARTESIAN_POINT ( 'NONE',  ( -16.69999999999999574, 79.00000000000000000, -3000.000000000000000 ) ) ;
#16 = ADVANCED_FACE ( 'NONE', ( #304 ), #487, .F. ) ;
#17 = ORIENTED_EDGE ( 'NONE', *, *, #63, .F. ) ;
#18 = CARTESIAN_POINT ( 'NONE',  ( -50.00000000000000000, -90.00000000000000000, -3000.000000000000000 ) ) ;
#19 = CC_DESIGN_PERSON_AND_ORGANIZATION_ASSIGNMENT ( #76, #275, ( #4 ) ) ;
#20 = DIRECTION ( 'NONE',  ( 1.000000000000000000, 0.000000000000000000, 0.000000000000000000 ) ) ;
#21 = ORIENTED_EDGE ( 'NONE', *, *, #209, .T. ) ;
#22 = DIRECTION ( 'NONE',  ( 0.000000000000000000, 1.000000000000000000, 0.000000000000000000 ) ) ;
#23 = CALENDAR_DATE ( 2026, 5, 8 ) ;
#24 = CIRCLE ( 'NONE', #416, 10.99999999999999822 ) ;
#25 = DIRECTION ( 'NONE',  ( -0.000000000000000000, -0.000000000000000000, -1.000000000000000000 ) ) ;
#26 = DATE_AND_TIME ( #23, #414 ) ;
#27 = EDGE_CURVE ( 'NONE', #332, #28, #147, .T. ) ;
#28 = VERTEX_POINT ( 'NONE', #546 ) ;
#29 = CARTESIAN_POINT ( 'NONE',  ( -50.00000000000000000, -90.00000000000000000, 3000.000000000000000 ) ) ;
#30 = ORIENTED_EDGE ( 'NONE', *, *, #63, .T. ) ;
#31 = DIRECTION ( 'NONE',  ( 1.000000000000000000, 0.000000000000000000, -0.000000000000000000 ) ) ;
#32 = VECTOR ( 'NONE', #591, 1000.000000000000000 ) ;
#33 = CIRCLE ( 'NONE', #368, 10.99999999999999822 ) ;
#34 = EDGE_CURVE ( 'NONE', #377, #443, #107, .T. ) ;
#35 = EDGE_LOOP ( 'NONE', ( #626, #239, #375, #97 ) ) ;
#36 = DIRECTION ( 'NONE',  ( -0.000000000000000000, -1.000000000000000000, -0.000000000000000000 ) ) ;
#37 = DIRECTION ( 'NONE',  ( 1.000000000000000000, 0.000000000000000000, -0.000000000000000000 ) ) ;
#38 = ORIENTED_EDGE ( 'NONE', *, *, #106, .F. ) ;
#39 = CARTESIAN_POINT ( 'NONE',  ( 16.70000000000000995, -79.00000000000000000, -3000.000000000000000 ) ) ;
#40 = DIRECTION ( 'NONE',  ( 0.000000000000000000, -1.000000000000000000, 0.000000000000000000 ) ) ;
#41 = ORIENTED_EDGE ( 'NONE', *, *, #232, .T. ) ;
#42 = LINE ( 'NONE', #635, #548 ) ;
#43 = VECTOR ( 'NONE', #277, 1000.000000000000000 ) ;
#44 = FACE_OUTER_BOUND ( 'NONE', #369, .T. ) ;
#45 = ADVANCED_FACE ( 'NONE', ( #51 ), #499, .F. ) ;
#46 = ORIENTED_EDGE ( 'NONE', *, *, #639, .T. ) ;
#47 = ORIENTED_EDGE ( 'NONE', *, *, #333, .F. ) ;
#48 = FACE_OUTER_BOUND ( 'NONE', #351, .T. ) ;
#49 = CARTESIAN_POINT ( 'NONE',  ( -16.69999999999999574, 79.00000000000000000, 3000.000000000000000 ) ) ;
#50 = ORIENTED_EDGE ( 'NONE', *, *, #424, .T. ) ;
#51 = FACE_OUTER_BOUND ( 'NONE', #486, .T. ) ;
#52 = CARTESIAN_POINT ( 'NONE',  ( -16.70000000000007390, 90.00000000000000000, 3000.000000000000000 ) ) ;
#53 = ORIENTED_EDGE ( 'NONE', *, *, #516, .F. ) ;
#54 = ORIENTED_EDGE ( 'NONE', *, *, #249, .T. ) ;
#55 = LINE ( 'NONE', #445, #178 ) ;
#56 = CIRCLE ( 'NONE', #309, 10.99999999999999822 ) ;
#57 = LINE ( 'NONE', #135, #43 ) ;
#58 = LINE ( 'NONE', #210, #121 ) ;
#59 = CARTESIAN_POINT ( 'NONE',  ( -50.00000000000000000, 99.99999999999998579, 3000.000000000000000 ) ) ;
#60 = CARTESIAN_POINT ( 'NONE',  ( -50.00000000000000000, -99.99999999999998579, 3000.000000000000000 ) ) ;
#61 = LINE ( 'NONE', #504, #257 ) ;
#62 = DIRECTION ( 'NONE',  ( 1.000000000000000000, 0.000000000000000000, 0.000000000000000000 ) ) ;
#63 = EDGE_CURVE ( 'NONE', #91, #186, #140, .T. ) ;
#64 = CARTESIAN_POINT ( 'NONE',  ( 0.000000000000000000, 0.000000000000000000, 0.000000000000000000 ) ) ;
#65 = CARTESIAN_POINT ( 'NONE',  ( 50.00000000000000000, 90.00000000000000000, 3000.000000000000000 ) ) ;
#66 = VECTOR ( 'NONE', #36, 1000.000000000000000 ) ;
#67 = CIRCLE ( 'NONE', #476, 10.99999999999999822 ) ;
#68 = EDGE_CURVE ( 'NONE', #195, #571, #42, .T. ) ;
#69 = CARTESIAN_POINT ( 'NONE',  ( -50.00000000000000000, 99.99999999999998579, 3000.000000000000000 ) ) ;
#70 = COORDINATED_UNIVERSAL_TIME_OFFSET ( 5, 30, .AHEAD. ) ;
#71 = LINE ( 'NONE', #164, #400 ) ;
#72 = ORIENTED_EDGE ( 'NONE', *, *, #570, .T. ) ;
#73 = DIRECTION ( 'NONE',  ( -0.000000000000000000, -0.000000000000000000, -1.000000000000000000 ) ) ;
#74 = SECURITY_CLASSIFICATION_LEVEL ( 'unclassified' ) ;
#75 = CARTESIAN_POINT ( 'NONE',  ( 16.70000000000007745, 90.00000000000000000, 3000.000000000000000 ) ) ;
#76 = PERSON_AND_ORGANIZATION ( #625, #321 ) ;
#77 = AXIS2_PLACEMENT_3D ( 'NONE', #273, #608, #122 ) ;
#78 = SHAPE_DEFINITION_REPRESENTATION ( #338, #452 ) ;
#79 = VERTEX_POINT ( 'NONE', #264 ) ;
#80 = PLANE ( 'NONE',  #12 ) ;
#81 = VERTEX_POINT ( 'NONE', #602 ) ;
#82 = DIRECTION ( 'NONE',  ( 0.000000000000000000, 0.000000000000000000, 1.000000000000000000 ) ) ;
#83 = EDGE_CURVE ( 'NONE', #594, #538, #221, .T. ) ;
#84 = CC_DESIGN_DATE_AND_TIME_ASSIGNMENT ( #26, #230, ( #593 ) ) ;
#85 = ORIENTED_EDGE ( 'NONE', *, *, #590, .T. ) ;
#86 = VECTOR ( 'NONE', #307, 1000.000000000000000 ) ;
#87 = DIRECTION ( 'NONE',  ( -0.000000000000000000, -0.000000000000000000, -1.000000000000000000 ) ) ;
#88 = VERTEX_POINT ( 'NONE', #404 ) ;
#89 = DIRECTION ( 'NONE',  ( -0.000000000000000000, -0.000000000000000000, -1.000000000000000000 ) ) ;
#90 = EDGE_CURVE ( 'NONE', #126, #629, #370, .T. ) ;
#91 = VERTEX_POINT ( 'NONE', #69 ) ;
#92 = VERTEX_POINT ( 'NONE', #18 ) ;
#93 = EDGE_CURVE ( 'NONE', #352, #489, #270, .T. ) ;
#94 = CARTESIAN_POINT ( 'NONE',  ( -50.00000000000000000, 90.00000000000000000, 3000.000000000000000 ) ) ;
#95 = CC_DESIGN_SECURITY_CLASSIFICATION ( #593, ( #4 ) ) ;
#96 = CARTESIAN_POINT ( 'NONE',  ( -5.699999999999998401, -79.00000000000000000, -3000.000000000000000 ) ) ;
#97 = ORIENTED_EDGE ( 'NONE', *, *, #322, .T. ) ;
#98 = ORIENTED_EDGE ( 'NONE', *, *, #361, .T. ) ;
#99 = LOCAL_TIME ( 13, 6, 41.00000000000000000, #367 ) ;
#100 = CARTESIAN_POINT ( 'NONE',  ( -16.69999999999999574, -79.00000000000000000, 3000.000000000000000 ) ) ;
#101 = APPLICATION_CONTEXT ( 'configuration controlled 3d designs of mechanical parts and assemblies' ) ;
#102 = ORIENTED_EDGE ( 'NONE', *, *, #344, .T. ) ;
#103 = ORIENTED_EDGE ( 'NONE', *, *, #472, .T. ) ;
#104 = DIRECTION ( 'NONE',  ( -1.000000000000000000, 0.000000000000000000, 0.000000000000000000 ) ) ;
#105 = CARTESIAN_POINT ( 'NONE',  ( -50.00000000000000000, -99.99999999999998579, -3000.000000000000000 ) ) ;
#106 = EDGE_CURVE ( 'NONE', #143, #436, #13, .T. ) ;
#107 = LINE ( 'NONE', #449, #447 ) ;
#108 = FACE_OUTER_BOUND ( 'NONE', #481, .T. ) ;
#109 = AXIS2_PLACEMENT_3D ( 'NONE', #357, #551, #320 ) ;
#110 = CARTESIAN_POINT ( 'NONE',  ( -5.699999999999996625, 78.99999999999991473, 3000.000000000000000 ) ) ;
#111 = CARTESIAN_POINT ( 'NONE',  ( 16.70000000000007745, 90.00000000000000000, 3000.000000000000000 ) ) ;
#112 = CARTESIAN_POINT ( 'NONE',  ( -5.699999999999998401, -79.00000000000000000, 3000.000000000000000 ) ) ;
#113 = EDGE_CURVE ( 'NONE', #477, #186, #554, .T. ) ;
#114 = DIRECTION ( 'NONE',  ( 0.000000000000000000, 1.000000000000000000, 0.000000000000000000 ) ) ;
#115 = DIRECTION ( 'NONE',  ( -0.000000000000000000, -0.000000000000000000, -1.000000000000000000 ) ) ;
#116 = ADVANCED_FACE ( 'NONE', ( #124 ), #407, .F. ) ;
#117 = ORIENTED_EDGE ( 'NONE', *, *, #182, .T. ) ;
#118 = APPROVAL_STATUS ( 'not_yet_approved' ) ;
#119 = LINE ( 'NONE', #214, #3 ) ;
#120 = AXIS2_PLACEMENT_3D ( 'NONE', #100, #89, #479 ) ;
#121 = VECTOR ( 'NONE', #454, 1000.000000000000000 ) ;
#122 = DIRECTION ( 'NONE',  ( -1.000000000000000000, 0.000000000000000000, 0.000000000000000000 ) ) ;
#123 = DATE_AND_TIME ( #555, #349 ) ;
#124 = FACE_OUTER_BOUND ( 'NONE', #630, .T. ) ;
#125 = DATE_AND_TIME ( #282, #99 ) ;
#126 = VERTEX_POINT ( 'NONE', #325 ) ;
#127 = APPROVAL_DATE_TIME ( #271, #380 ) ;
#128 = AXIS2_PLACEMENT_3D ( 'NONE', #161, #208, #413 ) ;
#129 = VECTOR ( 'NONE', #115, 1000.000000000000000 ) ;
#130 = DIRECTION ( 'NONE',  ( 0.000000000000000000, -0.000000000000000000, 1.000000000000000000 ) ) ;
#131 = ORIENTED_EDGE ( 'NONE', *, *, #90, .T. ) ;
#132 = ADVANCED_FACE ( 'NONE', ( #217 ), #511, .F. ) ;
#133 = CC_DESIGN_PERSON_AND_ORGANIZATION_ASSIGNMENT ( #324, #278, ( #4 ) ) ;
#134 = ORIENTED_EDGE ( 'NONE', *, *, #209, .F. ) ;
#135 = CARTESIAN_POINT ( 'NONE',  ( -16.70000000000007745, -90.00000000000000000, 3000.000000000000000 ) ) ;
#136 = DIRECTION ( 'NONE',  ( -0.000000000000000000, -0.000000000000000000, -1.000000000000000000 ) ) ;
#137 = ORIENTED_EDGE ( 'NONE', *, *, #27, .T. ) ;
#138 = ORIENTED_EDGE ( 'NONE', *, *, #27, .F. ) ;
#139 = EDGE_CURVE ( 'NONE', #443, #575, #212, .T. ) ;
#140 = LINE ( 'NONE', #341, #519 ) ;
#141 = PLANE ( 'NONE',  #509 ) ;
#142 = CARTESIAN_POINT ( 'NONE',  ( -16.70000000000007745, -90.00000000000000000, 3000.000000000000000 ) ) ;
#143 = VERTEX_POINT ( 'NONE', #552 ) ;
#144 = ORIENTED_EDGE ( 'NONE', *, *, #570, .F. ) ;
#145 = CARTESIAN_POINT ( 'NONE',  ( -5.699999999999996625, 8.137777980334162901E-15, -3000.000000000000000 ) ) ;
#146 = EDGE_LOOP ( 'NONE', ( #237, #38, #297, #251 ) ) ;
#147 = LINE ( 'NONE', #444, #86 ) ;
#148 = AXIS2_PLACEMENT_3D ( 'NONE', #39, #640, #248 ) ;
#149 = AXIS2_PLACEMENT_3D ( 'NONE', #386, #40, #578 ) ;
#150 = CARTESIAN_POINT ( 'NONE',  ( 50.00000000000000000, -90.00000000000000000, 3000.000000000000000 ) ) ;
#151 = CARTESIAN_POINT ( 'NONE',  ( 16.70000000000000995, -79.00000000000000000, 3000.000000000000000 ) ) ;
#152 = EDGE_LOOP ( 'NONE', ( #131, #597, #183, #396 ) ) ;
#153 = EDGE_CURVE ( 'NONE', #79, #638, #517, .T. ) ;
#154 = ORIENTED_EDGE ( 'NONE', *, *, #609, .F. ) ;
#155 = CC_DESIGN_DATE_AND_TIME_ASSIGNMENT ( #123, #468, ( #505 ) ) ;
#156 = ORIENTED_EDGE ( 'NONE', *, *, #379, .T. ) ;
#157 = CARTESIAN_POINT ( 'NONE',  ( -50.00000000000000000, 99.99999999999998579, 3000.000000000000000 ) ) ;
#158 = DIRECTION ( 'NONE',  ( -1.000000000000000000, 0.000000000000000000, 0.000000000000000000 ) ) ;
#159 = DIRECTION ( 'NONE',  ( -0.000000000000000000, -0.000000000000000000, -1.000000000000000000 ) ) ;
#160 = AXIS2_PLACEMENT_3D ( 'NONE', #59, #262, #455 ) ;
#161 = CARTESIAN_POINT ( 'NONE',  ( 16.69999999999999929, 79.00000000000000000, 3000.000000000000000 ) ) ;
#162 = ADVANCED_FACE ( 'NONE', ( #559 ), #514, .F. ) ;
#163 = DIRECTION ( 'NONE',  ( 1.000000000000000000, 0.000000000000000000, 0.000000000000000000 ) ) ;
#164 = CARTESIAN_POINT ( 'NONE',  ( 16.70000000000007745, 90.00000000000000000, -3000.000000000000000 ) ) ;
#165 = ORIENTED_EDGE ( 'NONE', *, *, #261, .F. ) ;
#166 = PERSON_AND_ORGANIZATION ( #625, #321 ) ;
#167 = DIRECTION ( 'NONE',  ( -1.000000000000000000, 0.000000000000000000, 0.000000000000000000 ) ) ;
#168 = CARTESIAN_POINT ( 'NONE',  ( 50.00000000000000000, -99.99999999999998579, 3000.000000000000000 ) ) ;
#169 = PERSON_AND_ORGANIZATION_ROLE ( 'design_owner' ) ;
#170 = DIRECTION ( 'NONE',  ( 0.000000000000000000, 1.000000000000000000, 0.000000000000000000 ) ) ;
#171 = CLOSED_SHELL ( 'NONE', ( #116, #473, #132, #272, #317, #618, #204, #427, #617, #607, #390, #162, #281, #637, #45, #410, #16, #402 ) ) ;
#172 =( GEOMETRIC_REPRESENTATION_CONTEXT ( 3 ) GLOBAL_UNCERTAINTY_ASSIGNED_CONTEXT ( ( #258 ) ) GLOBAL_UNIT_ASSIGNED_CONTEXT ( ( #604, #508, #175 ) ) REPRESENTATION_CONTEXT ( 'NONE', 'WORKASPACE' ) );
#173 = CARTESIAN_POINT ( 'NONE',  ( -50.00000000000000000, 99.99999999999998579, -3000.000000000000000 ) ) ;
#174 = MECHANICAL_CONTEXT ( 'NONE', #101, 'mechanical' ) ;
#175 =( NAMED_UNIT ( * ) SI_UNIT ( $, .STERADIAN. ) SOLID_ANGLE_UNIT ( ) );
#176 = DIRECTION ( 'NONE',  ( 0.000000000000000000, 0.000000000000000000, 1.000000000000000000 ) ) ;
#177 = CARTESIAN_POINT ( 'NONE',  ( 16.70000000000007745, 90.00000000000000000, 3000.000000000000000 ) ) ;
#178 = VECTOR ( 'NONE', #253, 1000.000000000000000 ) ;
#179 = CC_DESIGN_APPROVAL ( #283, ( #4 ) ) ;
#180 = EDGE_LOOP ( 'NONE', ( #85, #387, #623, #30 ) ) ;
#181 = DIRECTION ( 'NONE',  ( -0.000000000000000000, 0.000000000000000000, -1.000000000000000000 ) ) ;
#182 = EDGE_CURVE ( 'NONE', #437, #477, #415, .T. ) ;
#183 = ORIENTED_EDGE ( 'NONE', *, *, #68, .F. ) ;
#184 = CARTESIAN_POINT ( 'NONE',  ( 50.00000000000000000, -90.00000000000000000, 3000.000000000000000 ) ) ;
#185 = PLANE ( 'NONE',  #613 ) ;
#186 = VERTEX_POINT ( 'NONE', #173 ) ;
#187 = ORIENTED_EDGE ( 'NONE', *, *, #83, .T. ) ;
#188 = VECTOR ( 'NONE', #62, 1000.000000000000000 ) ;
#189 = ORIENTED_EDGE ( 'NONE', *, *, #516, .T. ) ;
#190 = DIRECTION ( 'NONE',  ( -0.000000000000000000, -0.000000000000000000, -1.000000000000000000 ) ) ;
#191 = ORIENTED_EDGE ( 'NONE', *, *, #93, .T. ) ;
#192 = DIRECTION ( 'NONE',  ( -0.000000000000000000, -0.000000000000000000, -1.000000000000000000 ) ) ;
#193 = CARTESIAN_POINT ( 'NONE',  ( -16.70000000000007745, -90.00000000000000000, 3000.000000000000000 ) ) ;
#194 = ORIENTED_EDGE ( 'NONE', *, *, #450, .T. ) ;
#195 = VERTEX_POINT ( 'NONE', #599 ) ;
#196 = EDGE_LOOP ( 'NONE', ( #201, #53, #345, #233 ) ) ;
#197 = CARTESIAN_POINT ( 'NONE',  ( 50.00000000000000000, -90.00000000000000000, 3000.000000000000000 ) ) ;
#198 = APPROVAL_PERSON_ORGANIZATION ( #166, #380, #417 ) ;
#199 = EDGE_CURVE ( 'NONE', #88, #81, #313, .T. ) ;
#200 = ORIENTED_EDGE ( 'NONE', *, *, #90, .F. ) ;
#201 = ORIENTED_EDGE ( 'NONE', *, *, #327, .T. ) ;
#202 = VECTOR ( 'NONE', #533, 1000.000000000000000 ) ;
#203 = AXIS2_PLACEMENT_3D ( 'NONE', #574, #136, #442 ) ;
#204 = ADVANCED_FACE ( 'NONE', ( #355 ), #311, .F. ) ;
#205 = CYLINDRICAL_SURFACE ( 'NONE', #120, 11.00000000000000000 ) ;
#206 = VERTEX_POINT ( 'NONE', #10 ) ;
#207 = DIRECTION ( 'NONE',  ( -1.000000000000000000, 0.000000000000000000, 0.000000000000000000 ) ) ;
#208 = DIRECTION ( 'NONE',  ( -0.000000000000000000, -0.000000000000000000, -1.000000000000000000 ) ) ;
#209 = EDGE_CURVE ( 'NONE', #377, #494, #506, .T. ) ;
#210 = CARTESIAN_POINT ( 'NONE',  ( -5.699999999999998401, -79.00000000000000000, 3000.000000000000000 ) ) ;
#211 = EDGE_CURVE ( 'NONE', #620, #563, #56, .T. ) ;
#212 = LINE ( 'NONE', #359, #243 ) ;
#213 = AXIS2_PLACEMENT_3D ( 'NONE', #177, #469, #130 ) ;
#214 = CARTESIAN_POINT ( 'NONE',  ( 50.00000000000000000, 99.99999999999998579, 3000.000000000000000 ) ) ;
#215 = CIRCLE ( 'NONE', #203, 10.99999999999999645 ) ;
#216 = FACE_OUTER_BOUND ( 'NONE', #535, .T. ) ;
#217 = FACE_OUTER_BOUND ( 'NONE', #525, .T. ) ;
#218 = APPROVAL_STATUS ( 'not_yet_approved' ) ;
#219 = DIRECTION ( 'NONE',  ( 1.000000000000000000, 0.000000000000000000, 0.000000000000000000 ) ) ;
#220 = ORIENTED_EDGE ( 'NONE', *, *, #587, .T. ) ;
#221 = LINE ( 'NONE', #75, #188 ) ;
#222 = EDGE_CURVE ( 'NONE', #563, #92, #567, .T. ) ;
#223 = ORIENTED_EDGE ( 'NONE', *, *, #211, .F. ) ;
#224 = CC_DESIGN_APPROVAL ( #380, ( #593 ) ) ;
#225 = DIRECTION ( 'NONE',  ( 0.000000000000000000, -1.000000000000000000, 0.000000000000000000 ) ) ;
#226 = APPROVAL_DATE_TIME ( #125, #252 ) ;
#227 = CARTESIAN_POINT ( 'NONE',  ( -50.00000000000000000, -99.99999999999998579, 3000.000000000000000 ) ) ;
#228 = AXIS2_PLACEMENT_3D ( 'NONE', #331, #524, #82 ) ;
#229 = DIRECTION ( 'NONE',  ( 1.000000000000000000, 0.000000000000000000, 0.000000000000000000 ) ) ;
#230 = DATE_TIME_ROLE ( 'classification_date' ) ;
#231 = EDGE_CURVE ( 'NONE', #143, #573, #291, .T. ) ;
#232 = EDGE_CURVE ( 'NONE', #588, #332, #57, .T. ) ;
#233 = ORIENTED_EDGE ( 'NONE', *, *, #106, .T. ) ;
#234 = LINE ( 'NONE', #421, #568 ) ;
#235 = APPROVAL_PERSON_ORGANIZATION ( #520, #283, #362 ) ;
#236 = ORIENTED_EDGE ( 'NONE', *, *, #327, .F. ) ;
#237 = ORIENTED_EDGE ( 'NONE', *, *, #566, .T. ) ;
#238 = LINE ( 'NONE', #627, #406 ) ;
#239 = ORIENTED_EDGE ( 'NONE', *, *, #361, .F. ) ;
#240 = LINE ( 'NONE', #632, #557 ) ;
#241 = FACE_OUTER_BOUND ( 'NONE', #146, .T. ) ;
#242 = EDGE_LOOP ( 'NONE', ( #46, #353, #299, #290 ) ) ;
#243 = VECTOR ( 'NONE', #22, 1000.000000000000000 ) ;
#244 = ORIENTED_EDGE ( 'NONE', *, *, #34, .T. ) ;
#245 = FACE_OUTER_BOUND ( 'NONE', #35, .T. ) ;
#246 = PRODUCT ( 'ISMB200 Construction Beam', 'ISMB200 Construction Beam', '', ( #174 ) ) ;
#247 = ORIENTED_EDGE ( 'NONE', *, *, #522, .F. ) ;
#248 = DIRECTION ( 'NONE',  ( -1.000000000000000000, 0.000000000000000000, 0.000000000000000000 ) ) ;
#249 = EDGE_CURVE ( 'NONE', #595, #477, #238, .T. ) ;
#250 = DIRECTION ( 'NONE',  ( -0.000000000000000000, -0.000000000000000000, -1.000000000000000000 ) ) ;
#251 = ORIENTED_EDGE ( 'NONE', *, *, #328, .T. ) ;
#252 = APPROVAL ( #218, 'UNSPECIFIED' ) ;
#253 = DIRECTION ( 'NONE',  ( -0.000000000000000000, -0.000000000000000000, -1.000000000000000000 ) ) ;
#254 = ORIENTED_EDGE ( 'NONE', *, *, #456, .F. ) ;
#255 = ORIENTED_EDGE ( 'NONE', *, *, #232, .F. ) ;
#256 = VECTOR ( 'NONE', #159, 1000.000000000000000 ) ;
#257 = VECTOR ( 'NONE', #534, 1000.000000000000000 ) ;
#258 = UNCERTAINTY_MEASURE_WITH_UNIT (LENGTH_MEASURE( 1.000000000000000082E-05 ), #604, 'distance_accuracy_value', 'NONE');
#259 = CARTESIAN_POINT ( 'NONE',  ( 50.00000000000000000, -99.99999999999998579, 3000.000000000000000 ) ) ;
#260 = CARTESIAN_POINT ( 'NONE',  ( 5.700000000000000178, 0.000000000000000000, 3000.000000000000000 ) ) ;
#261 = EDGE_CURVE ( 'NONE', #28, #352, #426, .T. ) ;
#262 = DIRECTION ( 'NONE',  ( 1.000000000000000000, 0.000000000000000000, -0.000000000000000000 ) ) ;
#263 = CARTESIAN_POINT ( 'NONE',  ( 5.700000000000009948, -78.99999999999991473, -3000.000000000000000 ) ) ;
#264 = CARTESIAN_POINT ( 'NONE',  ( 50.00000000000000000, -99.99999999999998579, 3000.000000000000000 ) ) ;
#265 = VECTOR ( 'NONE', #482, 1000.000000000000000 ) ;
#266 = PERSON_AND_ORGANIZATION ( #625, #321 ) ;
#267 = DIRECTION ( 'NONE',  ( 0.000000000000000000, 1.000000000000000000, 0.000000000000000000 ) ) ;
#268 = AXIS2_PLACEMENT_3D ( 'NONE', #49, #87, #485 ) ;
#269 = ORIENTED_EDGE ( 'NONE', *, *, #113, .T. ) ;
#270 = LINE ( 'NONE', #323, #601 ) ;
#271 = DATE_AND_TIME ( #419, #536 ) ;
#272 = ADVANCED_FACE ( 'NONE', ( #280 ), #564, .F. ) ;
#273 = CARTESIAN_POINT ( 'NONE',  ( 16.70000000000000995, -79.00000000000000000, 3000.000000000000000 ) ) ;
#274 = PRODUCT_RELATED_PRODUCT_CATEGORY ( 'detail', '', ( #246 ) ) ;
#275 = PERSON_AND_ORGANIZATION_ROLE ( 'creator' ) ;
#276 = CARTESIAN_POINT ( 'NONE',  ( 50.00000000000000000, -90.00000000000000000, 3000.000000000000000 ) ) ;
#277 = DIRECTION ( 'NONE',  ( -1.000000000000000000, 0.000000000000000000, 0.000000000000000000 ) ) ;
#278 = PERSON_AND_ORGANIZATION_ROLE ( 'design_supplier' ) ;
#279 = AXIS2_PLACEMENT_3D ( 'NONE', #308, #589, #104 ) ;
#280 = FACE_OUTER_BOUND ( 'NONE', #242, .T. ) ;
#281 = ADVANCED_FACE ( 'NONE', ( #521 ), #80, .F. ) ;
#282 = CALENDAR_DATE ( 2026, 5, 8 ) ;
#283 = APPROVAL ( #513, 'UNSPECIFIED' ) ;
#284 = ORIENTED_EDGE ( 'NONE', *, *, #301, .T. ) ;
#285 = DIRECTION ( 'NONE',  ( -1.207718875680056954E-16, 1.000000000000000000, -0.000000000000000000 ) ) ;
#286 = EDGE_LOOP ( 'NONE', ( #72, #21, #544, #187, #303, #194, #580, #496, #531, #523, #306, #41, #137, #315, #558, #156 ) ) ;
#287 = LINE ( 'NONE', #184, #399 ) ;
#288 = AXIS2_PLACEMENT_3D ( 'NONE', #585, #556, #219 ) ;
#289 = AXIS2_PLACEMENT_3D ( 'NONE', #64, #176, #319 ) ;
#290 = ORIENTED_EDGE ( 'NONE', *, *, #522, .T. ) ;
#291 = LINE ( 'NONE', #429, #66 ) ;
#292 = ORIENTED_EDGE ( 'NONE', *, *, #301, .F. ) ;
#293 = CYLINDRICAL_SURFACE ( 'NONE', #268, 11.00000000000000000 ) ;
#294 = ORIENTED_EDGE ( 'NONE', *, *, #182, .F. ) ;
#295 = LINE ( 'NONE', #145, #298 ) ;
#296 = CARTESIAN_POINT ( 'NONE',  ( -16.70000000000007390, 90.00000000000000000, -3000.000000000000000 ) ) ;
#297 = ORIENTED_EDGE ( 'NONE', *, *, #495, .F. ) ;
#298 = VECTOR ( 'NONE', #384, 1000.000000000000000 ) ;
#299 = ORIENTED_EDGE ( 'NONE', *, *, #83, .F. ) ;
#300 = CARTESIAN_POINT ( 'NONE',  ( 5.700000000000001954, 78.99999999999991473, 3000.000000000000000 ) ) ;
#301 = EDGE_CURVE ( 'NONE', #92, #352, #234, .T. ) ;
#302 = DIRECTION ( 'NONE',  ( -1.000000000000000000, 0.000000000000000000, 0.000000000000000000 ) ) ;
#303 = ORIENTED_EDGE ( 'NONE', *, *, #560, .T. ) ;
#304 = FACE_OUTER_BOUND ( 'NONE', #286, .T. ) ;
#305 = DIRECTION ( 'NONE',  ( -1.000000000000000000, 0.000000000000000000, 0.000000000000000000 ) ) ;
#306 = ORIENTED_EDGE ( 'NONE', *, *, #456, .T. ) ;
#307 = DIRECTION ( 'NONE',  ( 0.000000000000000000, -1.000000000000000000, 0.000000000000000000 ) ) ;
#308 = CARTESIAN_POINT ( 'NONE',  ( 16.70000000000000995, -79.00000000000000000, 3000.000000000000000 ) ) ;
#309 = AXIS2_PLACEMENT_3D ( 'NONE', #471, #378, #229 ) ;
#310 = CARTESIAN_POINT ( 'NONE',  ( -50.00000000000000000, 90.00000000000000000, 3000.000000000000000 ) ) ;
#311 = PLANE ( 'NONE',  #160 ) ;
#312 = CARTESIAN_POINT ( 'NONE',  ( 50.00000000000000000, 90.00000000000000000, 3000.000000000000000 ) ) ;
#313 = LINE ( 'NONE', #549, #318 ) ;
#314 = LINE ( 'NONE', #65, #423 ) ;
#315 = ORIENTED_EDGE ( 'NONE', *, *, #550, .T. ) ;
#316 = DIRECTION ( 'NONE',  ( 1.000000000000000000, 0.000000000000000000, 0.000000000000000000 ) ) ;
#317 = ADVANCED_FACE ( 'NONE', ( #376 ), #572, .F. ) ;
#318 = VECTOR ( 'NONE', #158, 1000.000000000000000 ) ;
#319 = DIRECTION ( 'NONE',  ( 1.000000000000000000, 0.000000000000000000, 0.000000000000000000 ) ) ;
#320 = DIRECTION ( 'NONE',  ( 1.000000000000000000, 0.000000000000000000, 0.000000000000000000 ) ) ;
#321 = ORGANIZATION ( 'UNSPECIFIED', 'UNSPECIFIED', '' ) ;
#322 = EDGE_CURVE ( 'NONE', #638, #88, #287, .T. ) ;
#323 = CARTESIAN_POINT ( 'NONE',  ( -50.00000000000000000, -99.99999999999998579, -3000.000000000000000 ) ) ;
#324 = PERSON_AND_ORGANIZATION ( #625, #321 ) ;
#325 = CARTESIAN_POINT ( 'NONE',  ( -50.00000000000000000, 90.00000000000000000, -3000.000000000000000 ) ) ;
#326 = PERSON_AND_ORGANIZATION ( #625, #321 ) ;
#327 = EDGE_CURVE ( 'NONE', #436, #620, #295, .T. ) ;
#328 = EDGE_CURVE ( 'NONE', #571, #629, #342, .T. ) ;
#329 = VECTOR ( 'NONE', #619, 1000.000000000000000 ) ;
#330 = ORIENTED_EDGE ( 'NONE', *, *, #333, .T. ) ;
#331 = CARTESIAN_POINT ( 'NONE',  ( 50.00000000000000000, 90.00000000000000000, 3000.000000000000000 ) ) ;
#332 = VERTEX_POINT ( 'NONE', #492 ) ;
#333 = EDGE_CURVE ( 'NONE', #494, #575, #497, .T. ) ;
#334 = VECTOR ( 'NONE', #9, 1000.000000000000000 ) ;
#335 = AXIS2_PLACEMENT_3D ( 'NONE', #227, #170, #409 ) ;
#336 = ORIENTED_EDGE ( 'NONE', *, *, #566, .F. ) ;
#337 = DIRECTION ( 'NONE',  ( -0.000000000000000000, -0.000000000000000000, -1.000000000000000000 ) ) ;
#338 = PRODUCT_DEFINITION_SHAPE ( 'NONE', 'NONE',  #505 ) ;
#339 = FACE_OUTER_BOUND ( 'NONE', #196, .T. ) ;
#340 = ORIENTED_EDGE ( 'NONE', *, *, #346, .F. ) ;
#341 = CARTESIAN_POINT ( 'NONE',  ( -50.00000000000000000, 99.99999999999998579, 3000.000000000000000 ) ) ;
#342 = LINE ( 'NONE', #52, #374 ) ;
#343 = CARTESIAN_POINT ( 'NONE',  ( 5.700000000000001954, 78.99999999999991473, -3000.000000000000000 ) ) ;
#344 = EDGE_CURVE ( 'NONE', #489, #88, #401, .T. ) ;
#345 = ORIENTED_EDGE ( 'NONE', *, *, #231, .F. ) ;
#346 = EDGE_CURVE ( 'NONE', #81, #443, #24, .T. ) ;
#347 = LINE ( 'NONE', #2, #621 ) ;
#348 = ORIENTED_EDGE ( 'NONE', *, *, #560, .F. ) ;
#349 = LOCAL_TIME ( 13, 6, 41.00000000000000000, #561 ) ;
#350 = PLANE ( 'NONE',  #576 ) ;
#351 = EDGE_LOOP ( 'NONE', ( #340, #641, #5, #584, #292, #428, #223, #236, #336, #200, #583, #528, #294, #382, #154, #440 ) ) ;
#352 = VERTEX_POINT ( 'NONE', #105 ) ;
#353 = ORIENTED_EDGE ( 'NONE', *, *, #424, .F. ) ;
#354 = CARTESIAN_POINT ( 'NONE',  ( 5.700000000000001954, 78.99999999999991473, 3000.000000000000000 ) ) ;
#355 = FACE_OUTER_BOUND ( 'NONE', #180, .T. ) ;
#356 = VECTOR ( 'NONE', #365, 1000.000000000000000 ) ;
#357 = CARTESIAN_POINT ( 'NONE',  ( -16.69999999999999574, -79.00000000000000000, 3000.000000000000000 ) ) ;
#358 = PLANE ( 'NONE',  #149 ) ;
#359 = CARTESIAN_POINT ( 'NONE',  ( 5.700000000000000178, 0.000000000000000000, -3000.000000000000000 ) ) ;
#360 = LINE ( 'NONE', #310, #129 ) ;
#361 = EDGE_CURVE ( 'NONE', #478, #81, #55, .T. ) ;
#362 = APPROVAL_ROLE ( '' ) ;
#363 = DIRECTION ( 'NONE',  ( 0.000000000000000000, 0.000000000000000000, 1.000000000000000000 ) ) ;
#364 = CC_DESIGN_PERSON_AND_ORGANIZATION_ASSIGNMENT ( #464, #169, ( #246 ) ) ;
#365 = DIRECTION ( 'NONE',  ( -1.000000000000000000, 0.000000000000000000, 0.000000000000000000 ) ) ;
#366 = CIRCLE ( 'NONE', #109, 10.99999999999999822 ) ;
#367 = COORDINATED_UNIVERSAL_TIME_OFFSET ( 5, 30, .AHEAD. ) ;
#368 = AXIS2_PLACEMENT_3D ( 'NONE', #547, #457, #11 ) ;
#369 = EDGE_LOOP ( 'NONE', ( #420, #579, #254, #189 ) ) ;
#370 = LINE ( 'NONE', #453, #475 ) ;
#371 = EDGE_CURVE ( 'NONE', #332, #92, #347, .T. ) ;
#372 = ORIENTED_EDGE ( 'NONE', *, *, #261, .T. ) ;
#373 = APPLICATION_PROTOCOL_DEFINITION ( 'international standard', 'config_control_design', 1994, #101 ) ;
#374 = VECTOR ( 'NONE', #337, 1000.000000000000000 ) ;
#375 = ORIENTED_EDGE ( 'NONE', *, *, #379, .F. ) ;
#376 = FACE_OUTER_BOUND ( 'NONE', #611, .T. ) ;
#377 = VERTEX_POINT ( 'NONE', #433 ) ;
#378 = DIRECTION ( 'NONE',  ( -0.000000000000000000, -0.000000000000000000, -1.000000000000000000 ) ) ;
#379 = EDGE_CURVE ( 'NONE', #638, #478, #530, .T. ) ;
#380 = APPROVAL ( #118, 'UNSPECIFIED' ) ;
#381 = CARTESIAN_POINT ( 'NONE',  ( -5.699999999999996625, 8.137777980334162901E-15, 3000.000000000000000 ) ) ;
#382 = ORIENTED_EDGE ( 'NONE', *, *, #639, .F. ) ;
#383 = CARTESIAN_POINT ( 'NONE',  ( 5.700000000000000178, 0.000000000000000000, 3000.000000000000000 ) ) ;
#384 = DIRECTION ( 'NONE',  ( 0.000000000000000000, -1.000000000000000000, 0.000000000000000000 ) ) ;
#385 = CIRCLE ( 'NONE', #288, 10.99999999999999645 ) ;
#386 = CARTESIAN_POINT ( 'NONE',  ( 50.00000000000000000, 99.99999999999998579, 3000.000000000000000 ) ) ;
#387 = ORIENTED_EDGE ( 'NONE', *, *, #501, .F. ) ;
#388 = DIRECTION ( 'NONE',  ( -1.000000000000000000, 0.000000000000000000, 0.000000000000000000 ) ) ;
#389 = FACE_OUTER_BOUND ( 'NONE', #152, .T. ) ;
#390 = ADVANCED_FACE ( 'NONE', ( #44 ), #205, .F. ) ;
#391 = LINE ( 'NONE', #193, #622 ) ;
#392 = ORIENTED_EDGE ( 'NONE', *, *, #153, .F. ) ;
#393 = CC_DESIGN_PERSON_AND_ORGANIZATION_ASSIGNMENT ( #326, #460, ( #505 ) ) ;
#394 = DIRECTION ( 'NONE',  ( 1.000000000000000000, 0.000000000000000000, 0.000000000000000000 ) ) ;
#395 = DIRECTION ( 'NONE',  ( 0.000000000000000000, -0.000000000000000000, 1.000000000000000000 ) ) ;
#396 = ORIENTED_EDGE ( 'NONE', *, *, #501, .T. ) ;
#397 = ORIENTED_EDGE ( 'NONE', *, *, #450, .F. ) ;
#398 = ORIENTED_EDGE ( 'NONE', *, *, #435, .F. ) ;
#399 = VECTOR ( 'NONE', #488, 1000.000000000000000 ) ;
#400 = VECTOR ( 'NONE', #20, 1000.000000000000000 ) ;
#401 = LINE ( 'NONE', #636, #32 ) ;
#402 = ADVANCED_FACE ( 'NONE', ( #48 ), #441, .T. ) ;
#403 = CARTESIAN_POINT ( 'NONE',  ( 50.00000000000000000, 99.99999999999998579, -3000.000000000000000 ) ) ;
#404 = CARTESIAN_POINT ( 'NONE',  ( 50.00000000000000000, -90.00000000000000000, -3000.000000000000000 ) ) ;
#405 = LINE ( 'NONE', #111, #540 ) ;
#406 = VECTOR ( 'NONE', #25, 1000.000000000000000 ) ;
#407 = CYLINDRICAL_SURFACE ( 'NONE', #77, 10.99999999999999822 ) ;
#408 = CARTESIAN_POINT ( 'NONE',  ( 50.00000000000000000, -99.99999999999998579, 3000.000000000000000 ) ) ;
#409 = DIRECTION ( 'NONE',  ( 0.000000000000000000, -0.000000000000000000, 1.000000000000000000 ) ) ;
#410 = ADVANCED_FACE ( 'NONE', ( #245 ), #350, .F. ) ;
#411 = PERSON_AND_ORGANIZATION_ROLE ( 'classification_officer' ) ;
#412 = DIRECTION ( 'NONE',  ( -0.000000000000000000, -0.000000000000000000, -1.000000000000000000 ) ) ;
#413 = DIRECTION ( 'NONE',  ( -1.000000000000000000, 0.000000000000000000, 0.000000000000000000 ) ) ;
#414 = LOCAL_TIME ( 13, 6, 41.00000000000000000, #605 ) ;
#415 = LINE ( 'NONE', #612, #526 ) ;
#416 = AXIS2_PLACEMENT_3D ( 'NONE', #539, #192, #305 ) ;
#417 = APPROVAL_ROLE ( '' ) ;
#418 = CARTESIAN_POINT ( 'NONE',  ( -50.00000000000000000, -99.99999999999998579, 3000.000000000000000 ) ) ;
#419 = CALENDAR_DATE ( 2026, 5, 8 ) ;
#420 = ORIENTED_EDGE ( 'NONE', *, *, #211, .T. ) ;
#421 = CARTESIAN_POINT ( 'NONE',  ( -50.00000000000000000, -90.00000000000000000, -3000.000000000000000 ) ) ;
#422 = AXIS2_PLACEMENT_3D ( 'NONE', #502, #225, #8 ) ;
#423 = VECTOR ( 'NONE', #267, 1000.000000000000000 ) ;
#424 = EDGE_CURVE ( 'NONE', #538, #437, #240, .T. ) ;
#425 = ORIENTED_EDGE ( 'NONE', *, *, #550, .F. ) ;
#426 = LINE ( 'NONE', #418, #483 ) ;
#427 = ADVANCED_FACE ( 'NONE', ( #389 ), #141, .F. ) ;
#428 = ORIENTED_EDGE ( 'NONE', *, *, #222, .F. ) ;
#429 = CARTESIAN_POINT ( 'NONE',  ( -5.699999999999996625, 8.137777980334162901E-15, 3000.000000000000000 ) ) ;
#430 = FACE_OUTER_BOUND ( 'NONE', #6, .T. ) ;
#431 = ORIENTED_EDGE ( 'NONE', *, *, #371, .F. ) ;
#432 = DESIGN_CONTEXT ( 'detailed design', #491, 'design' ) ;
#433 = CARTESIAN_POINT ( 'NONE',  ( 5.700000000000009948, -78.99999999999991473, 3000.000000000000000 ) ) ;
#434 = VECTOR ( 'NONE', #562, 1000.000000000000000 ) ;
#435 = EDGE_CURVE ( 'NONE', #494, #594, #385, .T. ) ;
#436 = VERTEX_POINT ( 'NONE', #500 ) ;
#437 = VERTEX_POINT ( 'NONE', #451 ) ;
#438 = DIRECTION ( 'NONE',  ( 0.000000000000000000, 1.000000000000000000, 0.000000000000000000 ) ) ;
#439 = DIRECTION ( 'NONE',  ( -0.000000000000000000, -0.000000000000000000, -1.000000000000000000 ) ) ;
#440 = ORIENTED_EDGE ( 'NONE', *, *, #139, .F. ) ;
#441 = PLANE ( 'NONE',  #148 ) ;
#442 = DIRECTION ( 'NONE',  ( 1.000000000000000000, 0.000000000000000000, 0.000000000000000000 ) ) ;
#443 = VERTEX_POINT ( 'NONE', #263 ) ;
#444 = CARTESIAN_POINT ( 'NONE',  ( -50.00000000000000000, -90.00000000000000000, 3000.000000000000000 ) ) ;
#445 = CARTESIAN_POINT ( 'NONE',  ( 16.70000000000008455, -90.00000000000000000, 3000.000000000000000 ) ) ;
#446 = ORIENTED_EDGE ( 'NONE', *, *, #139, .T. ) ;
#447 = VECTOR ( 'NONE', #490, 1000.000000000000000 ) ;
#448 = LOCAL_TIME ( 13, 6, 41.00000000000000000, #616 ) ;
#449 = CARTESIAN_POINT ( 'NONE',  ( 5.700000000000009948, -78.99999999999991473, 3000.000000000000000 ) ) ;
#450 = EDGE_CURVE ( 'NONE', #595, #91, #119, .T. ) ;
#451 = CARTESIAN_POINT ( 'NONE',  ( 50.00000000000000000, 90.00000000000000000, -3000.000000000000000 ) ) ;
#452 = ADVANCED_BREP_SHAPE_REPRESENTATION ( 'ISMB200 Construction Beam', ( #577, #289 ), #172 ) ;
#453 = CARTESIAN_POINT ( 'NONE',  ( -50.00000000000000000, 90.00000000000000000, -3000.000000000000000 ) ) ;
#454 = DIRECTION ( 'NONE',  ( -0.000000000000000000, -0.000000000000000000, -1.000000000000000000 ) ) ;
#455 = DIRECTION ( 'NONE',  ( -0.000000000000000000, 0.000000000000000000, -1.000000000000000000 ) ) ;
#456 = EDGE_CURVE ( 'NONE', #573, #588, #366, .T. ) ;
#457 = DIRECTION ( 'NONE',  ( -0.000000000000000000, -0.000000000000000000, -1.000000000000000000 ) ) ;
#458 = CARTESIAN_POINT ( 'NONE',  ( 16.70000000000007745, 90.00000000000000000, 3000.000000000000000 ) ) ;
#459 = CC_DESIGN_APPROVAL ( #252, ( #505 ) ) ;
#460 = PERSON_AND_ORGANIZATION_ROLE ( 'creator' ) ;
#461 = CARTESIAN_POINT ( 'NONE',  ( -16.70000000000007745, -90.00000000000000000, -3000.000000000000000 ) ) ;
#462 = EDGE_LOOP ( 'NONE', ( #470, #431, #255, #220 ) ) ;
#463 = DIRECTION ( 'NONE',  ( 1.000000000000000000, 0.000000000000000000, 0.000000000000000000 ) ) ;
#464 = PERSON_AND_ORGANIZATION ( #625, #321 ) ;
#465 = CARTESIAN_POINT ( 'NONE',  ( 50.00000000000000000, 99.99999999999998579, -3000.000000000000000 ) ) ;
#466 = PERSON_AND_ORGANIZATION ( #625, #321 ) ;
#467 = PLANE ( 'NONE',  #335 ) ;
#468 = DATE_TIME_ROLE ( 'creation_date' ) ;
#469 = DIRECTION ( 'NONE',  ( 0.000000000000000000, 1.000000000000000000, 0.000000000000000000 ) ) ;
#470 = ORIENTED_EDGE ( 'NONE', *, *, #222, .T. ) ;
#471 = CARTESIAN_POINT ( 'NONE',  ( -16.69999999999999574, -79.00000000000000000, -3000.000000000000000 ) ) ;
#472 = EDGE_CURVE ( 'NONE', #79, #489, #7, .T. ) ;
#473 = ADVANCED_FACE ( 'NONE', ( #108 ), #553, .F. ) ;
#474 = ORIENTED_EDGE ( 'NONE', *, *, #346, .T. ) ;
#475 = VECTOR ( 'NONE', #463, 1000.000000000000000 ) ;
#476 = AXIS2_PLACEMENT_3D ( 'NONE', #151, #439, #302 ) ;
#477 = VERTEX_POINT ( 'NONE', #403 ) ;
#478 = VERTEX_POINT ( 'NONE', #507 ) ;
#479 = DIRECTION ( 'NONE',  ( -1.000000000000000000, 0.000000000000000000, 0.000000000000000000 ) ) ;
#480 = DIRECTION ( 'NONE',  ( -0.000000000000000000, 0.000000000000000000, -1.000000000000000000 ) ) ;
#481 = EDGE_LOOP ( 'NONE', ( #446, #47, #134, #244 ) ) ;
#482 = DIRECTION ( 'NONE',  ( -0.000000000000000000, -0.000000000000000000, -1.000000000000000000 ) ) ;
#483 = VECTOR ( 'NONE', #615, 1000.000000000000000 ) ;
#484 = CIRCLE ( 'NONE', #569, 10.99999999999999822 ) ;
#485 = DIRECTION ( 'NONE',  ( -1.000000000000000000, 0.000000000000000000, 0.000000000000000000 ) ) ;
#486 = EDGE_LOOP ( 'NONE', ( #102, #537, #392, #103 ) ) ;
#487 = PLANE ( 'NONE',  #279 ) ;
#488 = DIRECTION ( 'NONE',  ( -0.000000000000000000, -0.000000000000000000, -1.000000000000000000 ) ) ;
#489 = VERTEX_POINT ( 'NONE', #598 ) ;
#490 = DIRECTION ( 'NONE',  ( -0.000000000000000000, -0.000000000000000000, -1.000000000000000000 ) ) ;
#491 = APPLICATION_CONTEXT ( 'configuration controlled 3d designs of mechanical parts and assemblies' ) ;
#492 = CARTESIAN_POINT ( 'NONE',  ( -50.00000000000000000, -90.00000000000000000, 3000.000000000000000 ) ) ;
#493 = EDGE_CURVE ( 'NONE', #91, #195, #600, .T. ) ;
#494 = VERTEX_POINT ( 'NONE', #354 ) ;
#495 = EDGE_CURVE ( 'NONE', #571, #143, #33, .T. ) ;
#496 = ORIENTED_EDGE ( 'NONE', *, *, #68, .T. ) ;
#497 = LINE ( 'NONE', #300, #265 ) ;
#498 = VECTOR ( 'NONE', #73, 1000.000000000000000 ) ;
#499 = PLANE ( 'NONE',  #592 ) ;
#500 = CARTESIAN_POINT ( 'NONE',  ( -5.699999999999996625, 78.99999999999991473, -3000.000000000000000 ) ) ;
#501 = EDGE_CURVE ( 'NONE', #195, #126, #360, .T. ) ;
#502 = CARTESIAN_POINT ( 'NONE',  ( -16.70000000000007745, -90.00000000000000000, 3000.000000000000000 ) ) ;
#503 = LINE ( 'NONE', #60, #527 ) ;
#504 = CARTESIAN_POINT ( 'NONE',  ( -50.00000000000000000, 99.99999999999998579, -3000.000000000000000 ) ) ;
#505 = PRODUCT_DEFINITION ( 'UNKNOWN', '', #4, #432 ) ;
#506 = LINE ( 'NONE', #383, #631 ) ;
#507 = CARTESIAN_POINT ( 'NONE',  ( 16.70000000000008455, -90.00000000000000000, 3000.000000000000000 ) ) ;
#508 =( NAMED_UNIT ( * ) PLANE_ANGLE_UNIT ( ) SI_UNIT ( $, .RADIAN. ) );
#509 = AXIS2_PLACEMENT_3D ( 'NONE', #94, #438, #395 ) ;
#510 = ORIENTED_EDGE ( 'NONE', *, *, #34, .F. ) ;
#511 = CYLINDRICAL_SURFACE ( 'NONE', #128, 10.99999999999999822 ) ;
#512 = APPROVAL_PERSON_ORGANIZATION ( #266, #252, #515 ) ;
#513 = APPROVAL_STATUS ( 'not_yet_approved' ) ;
#514 = PLANE ( 'NONE',  #422 ) ;
#515 = APPROVAL_ROLE ( '' ) ;
#516 = EDGE_CURVE ( 'NONE', #573, #620, #58, .T. ) ;
#517 = LINE ( 'NONE', #168, #434 ) ;
#518 = CALENDAR_DATE ( 2026, 5, 8 ) ;
#519 = VECTOR ( 'NONE', #532, 1000.000000000000000 ) ;
#520 = PERSON_AND_ORGANIZATION ( #625, #321 ) ;
#521 = FACE_OUTER_BOUND ( 'NONE', #541, .T. ) ;
#522 = EDGE_CURVE ( 'NONE', #594, #206, #405, .T. ) ;
#523 = ORIENTED_EDGE ( 'NONE', *, *, #231, .T. ) ;
#524 = DIRECTION ( 'NONE',  ( -1.000000000000000000, 0.000000000000000000, 0.000000000000000000 ) ) ;
#525 = EDGE_LOOP ( 'NONE', ( #628, #247, #398, #330 ) ) ;
#526 = VECTOR ( 'NONE', #114, 1000.000000000000000 ) ;
#527 = VECTOR ( 'NONE', #163, 1000.000000000000000 ) ;
#528 = ORIENTED_EDGE ( 'NONE', *, *, #113, .F. ) ;
#529 = CARTESIAN_POINT ( 'NONE',  ( -16.70000000000007745, -90.00000000000000000, -3000.000000000000000 ) ) ;
#530 = LINE ( 'NONE', #150, #202 ) ;
#531 = ORIENTED_EDGE ( 'NONE', *, *, #495, .T. ) ;
#532 = DIRECTION ( 'NONE',  ( -0.000000000000000000, -0.000000000000000000, -1.000000000000000000 ) ) ;
#533 = DIRECTION ( 'NONE',  ( -1.000000000000000000, 0.000000000000000000, 0.000000000000000000 ) ) ;
#534 = DIRECTION ( 'NONE',  ( 0.000000000000000000, -1.000000000000000000, 0.000000000000000000 ) ) ;
#535 = EDGE_LOOP ( 'NONE', ( #191, #1, #425, #372 ) ) ;
#536 = LOCAL_TIME ( 13, 6, 41.00000000000000000, #70 ) ;
#537 = ORIENTED_EDGE ( 'NONE', *, *, #322, .F. ) ;
#538 = VERTEX_POINT ( 'NONE', #312 ) ;
#539 = CARTESIAN_POINT ( 'NONE',  ( 16.70000000000000995, -79.00000000000000000, -3000.000000000000000 ) ) ;
#540 = VECTOR ( 'NONE', #603, 1000.000000000000000 ) ;
#541 = EDGE_LOOP ( 'NONE', ( #284, #165, #138, #545 ) ) ;
#542 = DIRECTION ( 'NONE',  ( 0.000000000000000000, -1.000000000000000000, 0.000000000000000000 ) ) ;
#543 = CC_DESIGN_PERSON_AND_ORGANIZATION_ASSIGNMENT ( #466, #411, ( #593 ) ) ;
#544 = ORIENTED_EDGE ( 'NONE', *, *, #435, .T. ) ;
#545 = ORIENTED_EDGE ( 'NONE', *, *, #371, .T. ) ;
#546 = CARTESIAN_POINT ( 'NONE',  ( -50.00000000000000000, -99.99999999999998579, 3000.000000000000000 ) ) ;
#547 = CARTESIAN_POINT ( 'NONE',  ( -16.69999999999999574, 79.00000000000000000, 3000.000000000000000 ) ) ;
#548 = VECTOR ( 'NONE', #394, 1000.000000000000000 ) ;
#549 = CARTESIAN_POINT ( 'NONE',  ( 50.00000000000000000, -90.00000000000000000, -3000.000000000000000 ) ) ;
#550 = EDGE_CURVE ( 'NONE', #28, #79, #503, .T. ) ;
#551 = DIRECTION ( 'NONE',  ( -0.000000000000000000, -0.000000000000000000, -1.000000000000000000 ) ) ;
#552 = CARTESIAN_POINT ( 'NONE',  ( -5.699999999999996625, 78.99999999999991473, 3000.000000000000000 ) ) ;
#553 = PLANE ( 'NONE',  #610 ) ;
#554 = LINE ( 'NONE', #465, #356 ) ;
#555 = CALENDAR_DATE ( 2026, 5, 8 ) ;
#556 = DIRECTION ( 'NONE',  ( -0.000000000000000000, -0.000000000000000000, -1.000000000000000000 ) ) ;
#557 = VECTOR ( 'NONE', #190, 1000.000000000000000 ) ;
#558 = ORIENTED_EDGE ( 'NONE', *, *, #153, .T. ) ;
#559 = FACE_OUTER_BOUND ( 'NONE', #462, .T. ) ;
#560 = EDGE_CURVE ( 'NONE', #538, #595, #314, .T. ) ;
#561 = COORDINATED_UNIVERSAL_TIME_OFFSET ( 5, 30, .AHEAD. ) ;
#562 = DIRECTION ( 'NONE',  ( 0.000000000000000000, 1.000000000000000000, 0.000000000000000000 ) ) ;
#563 = VERTEX_POINT ( 'NONE', #461 ) ;
#564 = PLANE ( 'NONE',  #213 ) ;
#565 = DATE_AND_TIME ( #518, #448 ) ;
#566 = EDGE_CURVE ( 'NONE', #629, #436, #484, .T. ) ;
#567 = LINE ( 'NONE', #529, #329 ) ;
#568 = VECTOR ( 'NONE', #624, 1000.000000000000000 ) ;
#569 = AXIS2_PLACEMENT_3D ( 'NONE', #15, #412, #606 ) ;
#570 = EDGE_CURVE ( 'NONE', #478, #377, #67, .T. ) ;
#571 = VERTEX_POINT ( 'NONE', #633 ) ;
#572 = PLANE ( 'NONE',  #228 ) ;
#573 = VERTEX_POINT ( 'NONE', #112 ) ;
#574 = CARTESIAN_POINT ( 'NONE',  ( 16.69999999999999929, 79.00000000000000000, -3000.000000000000000 ) ) ;
#575 = VERTEX_POINT ( 'NONE', #343 ) ;
#576 = AXIS2_PLACEMENT_3D ( 'NONE', #197, #542, #596 ) ;
#577 = MANIFOLD_SOLID_BREP ( 'Boss-Extrude1', #171 ) ;
#578 = DIRECTION ( 'NONE',  ( 0.000000000000000000, -0.000000000000000000, -1.000000000000000000 ) ) ;
#579 = ORIENTED_EDGE ( 'NONE', *, *, #587, .F. ) ;
#580 = ORIENTED_EDGE ( 'NONE', *, *, #493, .T. ) ;
#581 = DIRECTION ( 'NONE',  ( 0.000000000000000000, 0.000000000000000000, 1.000000000000000000 ) ) ;
#582 = DIRECTION ( 'NONE',  ( -0.000000000000000000, -0.000000000000000000, -1.000000000000000000 ) ) ;
#583 = ORIENTED_EDGE ( 'NONE', *, *, #590, .F. ) ;
#584 = ORIENTED_EDGE ( 'NONE', *, *, #93, .F. ) ;
#585 = CARTESIAN_POINT ( 'NONE',  ( 16.69999999999999929, 79.00000000000000000, 3000.000000000000000 ) ) ;
#586 = CARTESIAN_POINT ( 'NONE',  ( 50.00000000000000000, 99.99999999999998579, 3000.000000000000000 ) ) ;
#587 = EDGE_CURVE ( 'NONE', #588, #563, #391, .T. ) ;
#588 = VERTEX_POINT ( 'NONE', #142 ) ;
#589 = DIRECTION ( 'NONE',  ( -0.000000000000000000, 0.000000000000000000, -1.000000000000000000 ) ) ;
#590 = EDGE_CURVE ( 'NONE', #186, #126, #61, .T. ) ;
#591 = DIRECTION ( 'NONE',  ( 0.000000000000000000, 1.000000000000000000, 0.000000000000000000 ) ) ;
#592 = AXIS2_PLACEMENT_3D ( 'NONE', #259, #388, #581 ) ;
#593 = SECURITY_CLASSIFICATION ( '', '', #74 ) ;
#594 = VERTEX_POINT ( 'NONE', #458 ) ;
#595 = VERTEX_POINT ( 'NONE', #586 ) ;
#596 = DIRECTION ( 'NONE',  ( 0.000000000000000000, -0.000000000000000000, -1.000000000000000000 ) ) ;
#597 = ORIENTED_EDGE ( 'NONE', *, *, #328, .F. ) ;
#598 = CARTESIAN_POINT ( 'NONE',  ( 50.00000000000000000, -99.99999999999998579, -3000.000000000000000 ) ) ;
#599 = CARTESIAN_POINT ( 'NONE',  ( -50.00000000000000000, 90.00000000000000000, 3000.000000000000000 ) ) ;
#600 = LINE ( 'NONE', #157, #334 ) ;
#601 = VECTOR ( 'NONE', #316, 1000.000000000000000 ) ;
#602 = CARTESIAN_POINT ( 'NONE',  ( 16.70000000000008455, -90.00000000000000000, -3000.000000000000000 ) ) ;
#603 = DIRECTION ( 'NONE',  ( -0.000000000000000000, -0.000000000000000000, -1.000000000000000000 ) ) ;
#604 =( LENGTH_UNIT ( ) NAMED_UNIT ( * ) SI_UNIT ( .MILLI., .METRE. ) );
#605 = COORDINATED_UNIVERSAL_TIME_OFFSET ( 5, 30, .AHEAD. ) ;
#606 = DIRECTION ( 'NONE',  ( 1.000000000000000000, 0.000000000000000000, 0.000000000000000000 ) ) ;
#607 = ADVANCED_FACE ( 'NONE', ( #339 ), #185, .F. ) ;
#608 = DIRECTION ( 'NONE',  ( -0.000000000000000000, -0.000000000000000000, -1.000000000000000000 ) ) ;
#609 = EDGE_CURVE ( 'NONE', #575, #206, #215, .T. ) ;
#610 = AXIS2_PLACEMENT_3D ( 'NONE', #260, #207, #363 ) ;
#611 = EDGE_LOOP ( 'NONE', ( #117, #634, #348, #50 ) ) ;
#612 = CARTESIAN_POINT ( 'NONE',  ( 50.00000000000000000, 90.00000000000000000, -3000.000000000000000 ) ) ;
#613 = AXIS2_PLACEMENT_3D ( 'NONE', #381, #37, #480 ) ;
#614 = APPLICATION_PROTOCOL_DEFINITION ( 'international standard', 'config_control_design', 1994, #491 ) ;
#615 = DIRECTION ( 'NONE',  ( -0.000000000000000000, -0.000000000000000000, -1.000000000000000000 ) ) ;
#616 = COORDINATED_UNIVERSAL_TIME_OFFSET ( 5, 30, .AHEAD. ) ;
#617 = ADVANCED_FACE ( 'NONE', ( #241 ), #293, .F. ) ;
#618 = ADVANCED_FACE ( 'NONE', ( #430 ), #358, .F. ) ;
#619 = DIRECTION ( 'NONE',  ( -1.000000000000000000, 0.000000000000000000, 0.000000000000000000 ) ) ;
#620 = VERTEX_POINT ( 'NONE', #96 ) ;
#621 = VECTOR ( 'NONE', #582, 1000.000000000000000 ) ;
#622 = VECTOR ( 'NONE', #250, 1000.000000000000000 ) ;
#623 = ORIENTED_EDGE ( 'NONE', *, *, #493, .F. ) ;
#624 = DIRECTION ( 'NONE',  ( 0.000000000000000000, -1.000000000000000000, 0.000000000000000000 ) ) ;
#625 = PERSON ( 'UNSPECIFIED', 'UNSPECIFIED', 'UNSPECIFIED', ('UNSPECIFIED'), ('UNSPECIFIED'), ('UNSPECIFIED') ) ;
#626 = ORIENTED_EDGE ( 'NONE', *, *, #199, .T. ) ;
#627 = CARTESIAN_POINT ( 'NONE',  ( 50.00000000000000000, 99.99999999999998579, 3000.000000000000000 ) ) ;
#628 = ORIENTED_EDGE ( 'NONE', *, *, #609, .T. ) ;
#629 = VERTEX_POINT ( 'NONE', #296 ) ;
#630 = EDGE_LOOP ( 'NONE', ( #474, #510, #144, #98 ) ) ;
#631 = VECTOR ( 'NONE', #285, 1000.000000000000000 ) ;
#632 = CARTESIAN_POINT ( 'NONE',  ( 50.00000000000000000, 90.00000000000000000, 3000.000000000000000 ) ) ;
#633 = CARTESIAN_POINT ( 'NONE',  ( -16.70000000000007390, 90.00000000000000000, 3000.000000000000000 ) ) ;
#634 = ORIENTED_EDGE ( 'NONE', *, *, #249, .F. ) ;
#635 = CARTESIAN_POINT ( 'NONE',  ( -50.00000000000000000, 90.00000000000000000, 3000.000000000000000 ) ) ;
#636 = CARTESIAN_POINT ( 'NONE',  ( 50.00000000000000000, -99.99999999999998579, -3000.000000000000000 ) ) ;
#637 = ADVANCED_FACE ( 'NONE', ( #216 ), #467, .F. ) ;
#638 = VERTEX_POINT ( 'NONE', #276 ) ;
#639 = EDGE_CURVE ( 'NONE', #206, #437, #71, .T. ) ;
#640 = DIRECTION ( 'NONE',  ( -0.000000000000000000, 0.000000000000000000, -1.000000000000000000 ) ) ;
#641 = ORIENTED_EDGE ( 'NONE', *, *, #199, .F. ) ;
ENDSEC;
END-ISO-10303-21;
